<svg width="1512" height="251" viewBox="0 0 1512 251" fill="none" xmlns="http://www.w3.org/2000/svg">
<rect x="167.5" y="4.5" width="1178" height="242" rx="113.5" stroke="#FF96C6" stroke-width="9"/>
<path d="M358.822 125.45H364.372C370.172 125.45 374.622 124.25 377.722 121.85C380.822 119.45 382.372 116 382.372 111.5C382.372 107 380.822 103.55 377.722 101.15C374.622 98.75 370.172 97.55 364.372 97.55H358.822V125.45ZM423.472 188H386.872L358.822 144.5V188H329.422V74.9H375.172C381.472 74.9 386.972 75.85 391.672 77.75C396.372 79.55 400.222 82.05 403.222 85.25C406.322 88.45 408.622 92.15 410.122 96.35C411.722 100.55 412.522 105.05 412.522 109.85C412.522 118.45 410.422 125.45 406.222 130.85C402.122 136.15 396.022 139.75 387.922 141.65L423.472 188ZM497.87 103.85C494.67 101.25 491.47 99.35 488.27 98.15C485.07 96.85 481.97 96.2 478.97 96.2C475.17 96.2 472.07 97.1 469.67 98.9C467.27 100.7 466.07 103.05 466.07 105.95C466.07 107.95 466.67 109.6 467.87 110.9C469.07 112.2 470.62 113.35 472.52 114.35C474.52 115.25 476.72 116.05 479.12 116.75C481.62 117.45 484.07 118.2 486.47 119C496.07 122.2 503.07 126.5 507.47 131.9C511.97 137.2 514.22 144.15 514.22 152.75C514.22 158.55 513.22 163.8 511.22 168.5C509.32 173.2 506.47 177.25 502.67 180.65C498.97 183.95 494.37 186.5 488.87 188.3C483.47 190.2 477.32 191.15 470.42 191.15C456.12 191.15 442.87 186.9 430.67 178.4L443.27 154.7C447.67 158.6 452.02 161.5 456.32 163.4C460.62 165.3 464.87 166.25 469.07 166.25C473.87 166.25 477.42 165.15 479.72 162.95C482.12 160.75 483.32 158.25 483.32 155.45C483.32 153.75 483.02 152.3 482.42 151.1C481.82 149.8 480.82 148.65 479.42 147.65C478.02 146.55 476.17 145.55 473.87 144.65C471.67 143.75 468.97 142.75 465.77 141.65C461.97 140.45 458.22 139.15 454.52 137.75C450.92 136.25 447.67 134.3 444.77 131.9C441.97 129.5 439.67 126.5 437.87 122.9C436.17 119.2 435.32 114.55 435.32 108.95C435.32 103.35 436.22 98.3 438.02 93.8C439.92 89.2 442.52 85.3 445.82 82.1C449.22 78.8 453.32 76.25 458.12 74.45C463.02 72.65 468.47 71.75 474.47 71.75C480.07 71.75 485.92 72.55 492.02 74.15C498.12 75.65 503.97 77.9 509.57 80.9L497.87 103.85ZM552.696 74.9L579.996 143.75L607.446 74.9H639.396L591.696 188H568.296L520.746 74.9H552.696ZM680.648 126.8H690.398C701.198 126.8 706.598 122.1 706.598 112.7C706.598 103.3 701.198 98.6 690.398 98.6H680.648V126.8ZM680.648 188H651.248V74.9H698.048C710.748 74.9 720.448 78.2 727.148 84.8C733.948 91.4 737.348 100.7 737.348 112.7C737.348 124.7 733.948 134 727.148 140.6C720.448 147.2 710.748 150.5 698.048 150.5H680.648V188ZM833.285 118.55H875.735V74.9H905.135V188H875.735V141.35H833.285V188H803.885V74.9H833.285V118.55ZM993.186 99.8H958.236V118.7H991.236V143.6H958.236V163.1H993.186V188H928.836V74.9H993.186V99.8ZM1043.78 125.45H1049.33C1055.13 125.45 1059.58 124.25 1062.68 121.85C1065.78 119.45 1067.33 116 1067.33 111.5C1067.33 107 1065.78 103.55 1062.68 101.15C1059.58 98.75 1055.13 97.55 1049.33 97.55H1043.78V125.45ZM1108.43 188H1071.83L1043.78 144.5V188H1014.38V74.9H1060.13C1066.43 74.9 1071.93 75.85 1076.63 77.75C1081.33 79.55 1085.18 82.05 1088.18 85.25C1091.28 88.45 1093.58 92.15 1095.08 96.35C1096.68 100.55 1097.48 105.05 1097.48 109.85C1097.48 118.45 1095.38 125.45 1091.18 130.85C1087.08 136.15 1080.98 139.75 1072.88 141.65L1108.43 188ZM1185.08 99.8H1150.13V118.7H1183.13V143.6H1150.13V163.1H1185.08V188H1120.73V74.9H1185.08V99.8Z" fill="#FF96C6"/>
</svg>
